<?xml version="1.0" encoding="UTF-8" standalone="no"?><svg xmlns="http://www.w3.org/2000/svg" xmlns:xlink="http://www.w3.org/1999/xlink" contentScriptType="application/ecmascript" contentStyleType="text/css" height="623px" preserveAspectRatio="none" style="width:2160px;height:623px;" version="1.1" viewBox="0 0 2160 623" width="2160px" zoomAndPan="magnify"><defs/><g><text fill="#000000" font-family="sans-serif" font-size="18" lengthAdjust="spacingAndGlyphs" textLength="283" x="944.5" y="16.708">Runtime Architecture Overview</text><!--MD5=[2626c9c270d08a0a9ddca433e6c7e10f]
cluster Runtime Core--><polygon fill="#FFFFFF" points="50,175.9531,163,175.9531,170,198.25,1749,198.25,1749,518.9531,50,518.9531,50,175.9531" style="stroke: #000000; stroke-width: 1.5;"/><line style="stroke: #000000; stroke-width: 1.5;" x1="50" x2="170" y1="198.25" y2="198.25"/><text fill="#000000" font-family="sans-serif" font-size="14" font-weight="bold" lengthAdjust="spacingAndGlyphs" textLength="107" x="54" y="190.9482">Runtime Core</text><!--MD5=[5753a49c71504d6e82558f14f865fe4e]
cluster Step Modules--><polygon fill="#FFFFFF" points="1163,218.9531,1276,218.9531,1283,241.25,1421,241.25,1421,447.9531,1163,447.9531,1163,218.9531" style="stroke: #000000; stroke-width: 1.5;"/><line style="stroke: #000000; stroke-width: 1.5;" x1="1163" x2="1283" y1="241.25" y2="241.25"/><text fill="#000000" font-family="sans-serif" font-size="14" font-weight="bold" lengthAdjust="spacingAndGlyphs" textLength="107" x="1167" y="233.9482">Step Modules</text><!--MD5=[86892d390a35f93b4c10b76d3537b301]
cluster API Clients--><polygon fill="#FFFFFF" points="1560,218.9531,1650,218.9531,1657,241.25,1725,241.25,1725,447.9531,1560,447.9531,1560,218.9531" style="stroke: #000000; stroke-width: 1.5;"/><line style="stroke: #000000; stroke-width: 1.5;" x1="1560" x2="1657" y1="241.25" y2="241.25"/><text fill="#000000" font-family="sans-serif" font-size="14" font-weight="bold" lengthAdjust="spacingAndGlyphs" textLength="84" x="1564" y="233.9482">API Clients</text><!--MD5=[56958750488fff09e2ce92554dc9497d]
cluster External Systems--><polygon fill="#FFFFFF" points="1984,208.9531,2126,208.9531,2133,231.25,2138,231.25,2138,457.9531,1984,457.9531,1984,208.9531" style="stroke: #000000; stroke-width: 1.5;"/><line style="stroke: #000000; stroke-width: 1.5;" x1="1984" x2="2133" y1="231.25" y2="231.25"/><text fill="#000000" font-family="sans-serif" font-size="14" font-weight="bold" lengthAdjust="spacingAndGlyphs" textLength="136" x="1988" y="223.9482">External Systems</text><!--MD5=[9ee8e72603389bb0008f5a6df56ce29b]
entity Orchestrator--><rect fill="#FEFECE" height="36.2969" style="stroke: #A80036; stroke-width: 1.5;" width="107" x="513" y="342.9531"/><rect fill="#FEFECE" height="5" style="stroke: #A80036; stroke-width: 1.5;" width="10" x="508" y="347.9531"/><rect fill="#FEFECE" height="5" style="stroke: #A80036; stroke-width: 1.5;" width="10" x="508" y="369.25"/><text fill="#000000" font-family="sans-serif" font-size="14" lengthAdjust="spacingAndGlyphs" textLength="87" x="523" y="365.9482">Orchestrator</text><!--MD5=[93e452ac07e2dec068c120f7a37d02e2]
entity TransitionPolicy--><rect fill="#FEFECE" height="36.2969" style="stroke: #A80036; stroke-width: 1.5;" width="131" x="66" y="285.9531"/><rect fill="#FEFECE" height="5" style="stroke: #A80036; stroke-width: 1.5;" width="10" x="61" y="290.9531"/><rect fill="#FEFECE" height="5" style="stroke: #A80036; stroke-width: 1.5;" width="10" x="61" y="312.25"/><text fill="#000000" font-family="sans-serif" font-size="14" lengthAdjust="spacingAndGlyphs" textLength="111" x="76" y="308.9482">Transition Policy</text><!--MD5=[c6906ae4ccd67be39197125cf2722ba7]
entity StepExecutor--><rect fill="#FEFECE" height="36.2969" style="stroke: #A80036; stroke-width: 1.5;" width="117" x="831" y="289.9531"/><rect fill="#FEFECE" height="5" style="stroke: #A80036; stroke-width: 1.5;" width="10" x="826" y="294.9531"/><rect fill="#FEFECE" height="5" style="stroke: #A80036; stroke-width: 1.5;" width="10" x="826" y="316.25"/><text fill="#000000" font-family="sans-serif" font-size="14" lengthAdjust="spacingAndGlyphs" textLength="97" x="841" y="312.9482">Step Executor</text><!--MD5=[d8b809ca7e365e200e6ae38ec427e97f]
entity RunRepository--><rect fill="#FEFECE" height="36.2969" style="stroke: #A80036; stroke-width: 1.5;" width="126" x="1229" y="466.9531"/><rect fill="#FEFECE" height="5" style="stroke: #A80036; stroke-width: 1.5;" width="10" x="1224" y="471.9531"/><rect fill="#FEFECE" height="5" style="stroke: #A80036; stroke-width: 1.5;" width="10" x="1224" y="493.25"/><text fill="#000000" font-family="sans-serif" font-size="14" lengthAdjust="spacingAndGlyphs" textLength="106" x="1239" y="489.9482">Run Repository</text><!--MD5=[bc38b8d38aafb99a46d93b2de6b92941]
entity RetrievalSteps--><rect fill="#FEFECE" height="36.2969" style="stroke: #A80036; stroke-width: 1.5;" width="123" x="1230.5" y="253.9531"/><rect fill="#FEFECE" height="5" style="stroke: #A80036; stroke-width: 1.5;" width="10" x="1225.5" y="258.9531"/><rect fill="#FEFECE" height="5" style="stroke: #A80036; stroke-width: 1.5;" width="10" x="1225.5" y="280.25"/><text fill="#000000" font-family="sans-serif" font-size="14" lengthAdjust="spacingAndGlyphs" textLength="103" x="1240.5" y="276.9482">Retrieval Steps</text><!--MD5=[03bce2078c52482e946fc06c4154edd7]
entity CardHydration--><rect fill="#FEFECE" height="36.2969" style="stroke: #A80036; stroke-width: 1.5;" width="121" x="1231.5" y="395.9531"/><rect fill="#FEFECE" height="5" style="stroke: #A80036; stroke-width: 1.5;" width="10" x="1226.5" y="400.9531"/><rect fill="#FEFECE" height="5" style="stroke: #A80036; stroke-width: 1.5;" width="10" x="1226.5" y="422.25"/><text fill="#000000" font-family="sans-serif" font-size="14" lengthAdjust="spacingAndGlyphs" textLength="101" x="1241.5" y="418.9482">Card Hydration</text><!--MD5=[290062db706d4d2e1652182abf1230d4]
entity GenerationSteps--><rect fill="#FEFECE" height="36.2969" style="stroke: #A80036; stroke-width: 1.5;" width="226" x="1179" y="324.9531"/><rect fill="#FEFECE" height="5" style="stroke: #A80036; stroke-width: 1.5;" width="10" x="1174" y="329.9531"/><rect fill="#FEFECE" height="5" style="stroke: #A80036; stroke-width: 1.5;" width="10" x="1174" y="351.25"/><text fill="#000000" font-family="sans-serif" font-size="14" lengthAdjust="spacingAndGlyphs" textLength="206" x="1189" y="347.9482">Generation And Update Steps</text><!--MD5=[871e53cf2fc6901615a64b4e63128ff6]
entity QdrantClients--><rect fill="#FEFECE" height="36.2969" style="stroke: #A80036; stroke-width: 1.5;" width="118" x="1583.5" y="253.9531"/><rect fill="#FEFECE" height="5" style="stroke: #A80036; stroke-width: 1.5;" width="10" x="1578.5" y="258.9531"/><rect fill="#FEFECE" height="5" style="stroke: #A80036; stroke-width: 1.5;" width="10" x="1578.5" y="280.25"/><text fill="#000000" font-family="sans-serif" font-size="14" lengthAdjust="spacingAndGlyphs" textLength="98" x="1593.5" y="276.9482">Qdrant Clients</text><!--MD5=[87e68e62b79fcdbd614a790e3b72682a]
entity PostgresClients--><rect fill="#FEFECE" height="36.2969" style="stroke: #A80036; stroke-width: 1.5;" width="133" x="1576" y="395.9531"/><rect fill="#FEFECE" height="5" style="stroke: #A80036; stroke-width: 1.5;" width="10" x="1571" y="400.9531"/><rect fill="#FEFECE" height="5" style="stroke: #A80036; stroke-width: 1.5;" width="10" x="1571" y="422.25"/><text fill="#000000" font-family="sans-serif" font-size="14" lengthAdjust="spacingAndGlyphs" textLength="113" x="1586" y="418.9482">Postgres Clients</text><!--MD5=[950cd0e72b1d45da71659d9f69b9d322]
entity ModelClients--><rect fill="#FEFECE" height="36.2969" style="stroke: #A80036; stroke-width: 1.5;" width="113" x="1586" y="324.9531"/><rect fill="#FEFECE" height="5" style="stroke: #A80036; stroke-width: 1.5;" width="10" x="1581" y="329.9531"/><rect fill="#FEFECE" height="5" style="stroke: #A80036; stroke-width: 1.5;" width="10" x="1581" y="351.25"/><text fill="#000000" font-family="sans-serif" font-size="14" lengthAdjust="spacingAndGlyphs" textLength="93" x="1596" y="347.9482">Model Clients</text><!--MD5=[0a8b7e9f3a6eb52a0abd8364c6934c48]
entity Qdrant--><path d="M2027.5,254.4531 C2027.5,244.4531 2061,244.4531 2061,244.4531 C2061,244.4531 2094.5,244.4531 2094.5,254.4531 L2094.5,279.75 C2094.5,289.75 2061,289.75 2061,289.75 C2061,289.75 2027.5,289.75 2027.5,279.75 L2027.5,254.4531 " fill="#FEFECE" style="stroke: #000000; stroke-width: 1.5;"/><path d="M2027.5,254.4531 C2027.5,264.4531 2061,264.4531 2061,264.4531 C2061,264.4531 2094.5,264.4531 2094.5,254.4531 " fill="none" style="stroke: #000000; stroke-width: 1.5;"/><text fill="#000000" font-family="sans-serif" font-size="14" lengthAdjust="spacingAndGlyphs" textLength="47" x="2037.5" y="281.4482">Qdrant</text><!--MD5=[7fbd20eab0f047d95d8cf961cd333b40]
entity Postgres--><path d="M2020,406.4531 C2020,396.4531 2061,396.4531 2061,396.4531 C2061,396.4531 2102,396.4531 2102,406.4531 L2102,431.75 C2102,441.75 2061,441.75 2061,441.75 C2061,441.75 2020,441.75 2020,431.75 L2020,406.4531 " fill="#FEFECE" style="stroke: #000000; stroke-width: 1.5;"/><path d="M2020,406.4531 C2020,416.4531 2061,416.4531 2061,416.4531 C2061,416.4531 2102,416.4531 2102,406.4531 " fill="none" style="stroke: #000000; stroke-width: 1.5;"/><text fill="#000000" font-family="sans-serif" font-size="14" lengthAdjust="spacingAndGlyphs" textLength="62" x="2030" y="433.4482">Postgres</text><!--MD5=[3a3504175e33e3d9225366d1c95a50fe]
entity ModelProvider--><rect fill="#FEFECE" height="36.2969" style="stroke: #A80036; stroke-width: 1.5;" width="122" x="2000" y="324.9531"/><rect fill="#FEFECE" height="5" style="stroke: #A80036; stroke-width: 1.5;" width="10" x="1995" y="329.9531"/><rect fill="#FEFECE" height="5" style="stroke: #A80036; stroke-width: 1.5;" width="10" x="1995" y="351.25"/><text fill="#000000" font-family="sans-serif" font-size="14" lengthAdjust="spacingAndGlyphs" textLength="102" x="2010" y="347.9482">Model Provider</text><!--MD5=[fee662a292a0353a69bd162820bae93b]
entity User--><ellipse cx="131.5" cy="544.4531" fill="#FEFECE" rx="8" ry="8" style="stroke: #A80036; stroke-width: 1.5;"/><path d="M131.5,552.4531 L131.5,579.4531 M118.5,560.4531 L144.5,560.4531 M131.5,579.4531 L118.5,594.4531 M131.5,579.4531 L144.5,594.4531 " fill="none" style="stroke: #A80036; stroke-width: 1.5;"/><text fill="#000000" font-family="sans-serif" font-size="14" lengthAdjust="spacingAndGlyphs" textLength="32" x="115.5" y="609.9482">User</text><path d="M6,119.9531 L6,160.2188 A0,0 0 0 0 6,160.2188 L127.5,160.2188 L131.5,285.6931 L135.5,160.2188 L257,160.2188 A0,0 0 0 0 257,160.2188 L257,129.9531 L247,119.9531 L6,119.9531 A0,0 0 0 0 6,119.9531 " fill="#FBFB77" style="stroke: #A80036; stroke-width: 1.0;"/><path d="M247,119.9531 L247,129.9531 L257,129.9531 L247,119.9531 " fill="#FBFB77" style="stroke: #A80036; stroke-width: 1.0;"/><text fill="#000000" font-family="sans-serif" font-size="13" lengthAdjust="spacingAndGlyphs" textLength="230" x="12" y="137.02">Determines which step can run next</text><text fill="#000000" font-family="sans-serif" font-size="13" lengthAdjust="spacingAndGlyphs" textLength="153" x="12" y="152.1528">for the current iteration.</text><path d="M1181,119.9531 L1181,160.2188 L1403,160.2188 L1403,129.9531 L1393,119.9531 L1181,119.9531 " fill="#FBFB77" style="stroke: #A80036; stroke-width: 1.0;"/><path d="M1393,119.9531 L1393,129.9531 L1403,129.9531 L1393,119.9531 " fill="#FBFB77" style="stroke: #A80036; stroke-width: 1.0;"/><text fill="#000000" font-family="sans-serif" font-size="13" lengthAdjust="spacingAndGlyphs" textLength="201" x="1187" y="137.02">Each executed step is recorded</text><text fill="#000000" font-family="sans-serif" font-size="13" lengthAdjust="spacingAndGlyphs" textLength="129" x="1187" y="152.1528">in durable run state.</text><path d="M1188,29.4531 L1188,84.8516 L1396,84.8516 L1396,39.4531 L1386,29.4531 L1188,29.4531 " fill="#FBFB77" style="stroke: #A80036; stroke-width: 1.0;"/><path d="M1386,29.4531 L1386,39.4531 L1396,39.4531 L1386,29.4531 " fill="#FBFB77" style="stroke: #A80036; stroke-width: 1.0;"/><text fill="#000000" font-family="sans-serif" font-size="13" lengthAdjust="spacingAndGlyphs" textLength="187" x="1194" y="46.52">Some modules read different</text><text fill="#000000" font-family="sans-serif" font-size="13" lengthAdjust="spacingAndGlyphs" textLength="186" x="1194" y="61.6528">Qdrant collections depending</text><text fill="#000000" font-family="sans-serif" font-size="13" lengthAdjust="spacingAndGlyphs" textLength="135" x="1194" y="76.7856">on the selected step.</text><!--MD5=[1d5eb866ba698b5ed80d56014fb94e3d]
link User to Orchestrator--><path d="M147.57,567.6231 C171.12,557.6631 217.96,537.5531 257,518.9531 C355.48,472.0331 469.18,412.3331 527.16,381.4831 " fill="none" id="User-&gt;Orchestrator" style="stroke: #A80036; stroke-width: 1.0;"/><polygon fill="#A80036" points="531.58,379.1331,521.7568,379.844,527.1694,381.4883,525.5251,386.9009,531.58,379.1331" style="stroke: #A80036; stroke-width: 1.0;"/><text fill="#000000" font-family="sans-serif" font-size="13" lengthAdjust="spacingAndGlyphs" textLength="64" x="353" y="403.02">user input</text><!--MD5=[a3f9d14b4c6448a452dea4ca5935e6c1]
link Orchestrator to TransitionPolicy--><path d="M512.87,367.5731 C456.47,373.2631 364.59,378.4931 287,363.9531 C246.6,356.3831 203.17,338.5731 172.68,324.3131 " fill="none" id="Orchestrator-&gt;TransitionPolicy" style="stroke: #A80036; stroke-width: 1.0;"/><polygon fill="#A80036" points="167.9,322.0631,174.3345,329.5195,172.4225,324.1956,177.7464,322.2835,167.9,322.0631" style="stroke: #A80036; stroke-width: 1.0;"/><text fill="#000000" font-family="sans-serif" font-size="13" lengthAdjust="spacingAndGlyphs" textLength="86" x="342" y="360.02">ask next step</text><!--MD5=[333b3cc4aac15f3ec4157ba4e223bfac]
link TransitionPolicy to Orchestrator--><path d="M197.05,309.1131 C267.59,315.2131 383.77,326.6531 483,342.9531 C491.03,344.2731 499.45,345.8631 507.72,347.5531 " fill="none" id="TransitionPolicy-&gt;Orchestrator" style="stroke: #A80036; stroke-width: 1.0;"/><polygon fill="#A80036" points="512.84,348.6131,504.8376,342.8719,507.9438,347.5996,503.216,350.7058,512.84,348.6131" style="stroke: #A80036; stroke-width: 1.0;"/><text fill="#000000" font-family="sans-serif" font-size="13" lengthAdjust="spacingAndGlyphs" textLength="158" x="306" y="300.02">next step / wait for user /</text><text fill="#000000" font-family="sans-serif" font-size="13" lengthAdjust="spacingAndGlyphs" textLength="194" x="288" y="315.1528">finish w error / finish w success</text><!--MD5=[7e711f6c0601ff8415c07dc2dd376fa7]
link Orchestrator to StepExecutor--><path d="M620.04,360.7731 C666.12,359.6731 734.68,355.7131 793,342.9531 C809.41,339.3631 826.82,333.6031 842.21,327.7831 " fill="none" id="Orchestrator-&gt;StepExecutor" style="stroke: #A80036; stroke-width: 1.0;"/><polygon fill="#A80036" points="846.92,325.9831,837.085,325.4604,842.2496,327.7684,839.9415,332.933,846.92,325.9831" style="stroke: #A80036; stroke-width: 1.0;"/><text fill="#000000" font-family="sans-serif" font-size="13" lengthAdjust="spacingAndGlyphs" textLength="141" x="651" y="339.02">execute selected step</text><!--MD5=[88add8241edfb35a726756a2aeed2b4c]
link StepExecutor to Orchestrator--><path d="M830.7,305.2431 C781.8,304.3931 710.28,306.5531 650,321.9531 C634,326.0431 617.36,333.2631 603.24,340.3931 " fill="none" id="StepExecutor-&gt;Orchestrator" style="stroke: #A80036; stroke-width: 1.0;"/><polygon fill="#A80036" points="598.56,342.8031,608.3922,342.2306,603.0033,340.5103,604.7236,335.1214,598.56,342.8031" style="stroke: #A80036; stroke-width: 1.0;"/><text fill="#000000" font-family="sans-serif" font-size="13" lengthAdjust="spacingAndGlyphs" textLength="89" x="677" y="302.02">step outcome</text><!--MD5=[a350d600ab69e8ca1a26012a99560bb7]
link StepExecutor to RetrievalSteps--><path d="M948.19,297.3231 C960.63,295.3031 973.73,293.3831 986,291.9531 C1068.16,282.4031 1163.34,277.0631 1225.22,274.3531 " fill="none" id="StepExecutor-&gt;RetrievalSteps" style="stroke: #A80036; stroke-width: 1.0;"/><polygon fill="#A80036" points="1230.36,274.1331,1221.1965,270.5233,1225.3646,274.3478,1221.5401,278.5159,1230.36,274.1331" style="stroke: #A80036; stroke-width: 1.0;"/><text fill="#000000" font-family="sans-serif" font-size="13" lengthAdjust="spacingAndGlyphs" textLength="142" x="995.5" y="275.02">dispatch retrieval step</text><!--MD5=[9c09066b85a73d46c03e378162cc64a6]
link StepExecutor to CardHydration--><path d="M921.86,326.0331 C940.08,335.8531 963.75,347.4731 986,354.9531 C1066.55,382.0231 1163.49,398.1231 1226.13,406.5031 " fill="none" id="StepExecutor-&gt;CardHydration" style="stroke: #A80036; stroke-width: 1.0;"/><polygon fill="#A80036" points="1231.33,407.1931,1222.9192,402.0689,1226.3715,406.5501,1221.8903,410.0025,1231.33,407.1931" style="stroke: #A80036; stroke-width: 1.0;"/><text fill="#000000" font-family="sans-serif" font-size="13" lengthAdjust="spacingAndGlyphs" textLength="150" x="991.5" y="351.02">dispatch hydration step</text><!--MD5=[3a3e71a211d403272adfea487b9b9d99]
link StepExecutor to GenerationSteps--><path d="M948.31,313.0031 C1006.91,318.1231 1099.24,326.1931 1173.31,332.6731 " fill="none" id="StepExecutor-&gt;GenerationSteps" style="stroke: #A80036; stroke-width: 1.0;"/><polygon fill="#A80036" points="1178.61,333.1331,1169.9856,328.377,1173.6284,332.7049,1169.3005,336.3476,1178.61,333.1331" style="stroke: #A80036; stroke-width: 1.0;"/><text fill="#000000" font-family="sans-serif" font-size="13" lengthAdjust="spacingAndGlyphs" textLength="159" x="987" y="313.02">dispatch generation step</text><!--MD5=[014ab9169ee7f132a2d456593f13c662]
link RetrievalSteps to QdrantClients--><path d="M1353.7,271.9531 C1416.49,271.9531 1514.11,271.9531 1577.93,271.9531 " fill="none" id="RetrievalSteps-&gt;QdrantClients" style="stroke: #A80036; stroke-width: 1.0;"/><polygon fill="#A80036" points="1583.23,271.9531,1574.23,267.9531,1578.23,271.9531,1574.23,275.9531,1583.23,271.9531" style="stroke: #A80036; stroke-width: 1.0;"/><!--MD5=[a262f49c2e9448b15f4d1ab35080bfd3]
link CardHydration to PostgresClients--><path d="M1352.51,413.9531 C1412.83,413.9531 1506.17,413.9531 1570.36,413.9531 " fill="none" id="CardHydration-&gt;PostgresClients" style="stroke: #A80036; stroke-width: 1.0;"/><polygon fill="#A80036" points="1575.7,413.9531,1566.7,409.9531,1570.7,413.9531,1566.7,417.9531,1575.7,413.9531" style="stroke: #A80036; stroke-width: 1.0;"/><!--MD5=[03772ca77da27d0b861f86c5ba9e33eb]
link GenerationSteps to ModelClients--><path d="M1405.19,342.9531 C1463.36,342.9531 1532.14,342.9531 1580.46,342.9531 " fill="none" id="GenerationSteps-&gt;ModelClients" style="stroke: #A80036; stroke-width: 1.0;"/><polygon fill="#A80036" points="1585.66,342.9531,1576.66,338.9531,1580.66,342.9531,1576.66,346.9531,1585.66,342.9531" style="stroke: #A80036; stroke-width: 1.0;"/><!--MD5=[4e616b0491007f21d166a0d6fda0a9e9]
link QdrantClients to Qdrant--><path d="M1701.85,271.2531 C1788.65,270.2131 1949.35,268.2831 2022.27,267.4031 " fill="none" id="QdrantClients-&gt;Qdrant" style="stroke: #A80036; stroke-width: 1.0;"/><polygon fill="#A80036" points="2027.36,267.3431,2018.3149,263.4462,2022.3603,267.4003,2018.4063,271.4457,2027.36,267.3431" style="stroke: #A80036; stroke-width: 1.0;"/><text fill="#000000" font-family="sans-serif" font-size="13" lengthAdjust="spacingAndGlyphs" textLength="201" x="1766" y="250.02">search cards / incident chunks /</text><text fill="#000000" font-family="sans-serif" font-size="13" lengthAdjust="spacingAndGlyphs" textLength="112" x="1810.5" y="265.1528">theory collections</text><!--MD5=[a53eefba38b034296350ecf3ae817fbc]
link PostgresClients to Postgres--><path d="M1709.04,414.7431 C1794.27,415.7631 1940.97,417.5231 2014.78,418.4131 " fill="none" id="PostgresClients-&gt;Postgres" style="stroke: #A80036; stroke-width: 1.0;"/><polygon fill="#A80036" points="2019.97,418.4731,2011.0163,414.3705,2014.9703,418.416,2010.9249,422.37,2019.97,418.4731" style="stroke: #A80036; stroke-width: 1.0;"/><text fill="#000000" font-family="sans-serif" font-size="13" lengthAdjust="spacingAndGlyphs" textLength="173" x="1780" y="411.02">load cards / store run state</text><!--MD5=[176608208cb7b23821e96cd28c45fdaf]
link ModelClients to ModelProvider--><path d="M1699.15,343.5031 C1719.82,343.6831 1743.48,343.8631 1765,343.9531 C1855.22,344.3231 1877.78,344.4431 1968,343.9531 C1976.47,343.9031 1985.37,343.8331 1994.17,343.7531 " fill="none" id="ModelClients-&gt;ModelProvider" style="stroke: #A80036; stroke-width: 1.0;"/><polygon fill="#A80036" points="1999.63,343.7031,1990.596,339.7804,1994.6302,343.746,1990.6646,347.7801,1999.63,343.7031" style="stroke: #A80036; stroke-width: 1.0;"/><text fill="#000000" font-family="sans-serif" font-size="13" lengthAdjust="spacingAndGlyphs" textLength="164" x="1784.5" y="325.02">structuring / observation /</text><text fill="#000000" font-family="sans-serif" font-size="13" lengthAdjust="spacingAndGlyphs" textLength="101" x="1816" y="340.1528">generation calls</text><!--MD5=[f16001fc86025ded91c0b000fd3c5a52]
link StepExecutor to RunRepository--><path d="M921.43,326.0231 C933.32,334.0731 946.35,344.3631 956,355.9531 C975.59,379.4731 961.97,398.9831 986,417.9531 C995.39,425.3631 1136.79,454.4031 1223.72,471.7231 " fill="none" id="StepExecutor-&gt;RunRepository" style="stroke: #A80036; stroke-width: 1.0;"/><polygon fill="#A80036" points="1228.85,472.7431,1220.8156,467.0467,1223.9482,471.757,1219.2379,474.8896,1228.85,472.7431" style="stroke: #A80036; stroke-width: 1.0;"/><text fill="#000000" font-family="sans-serif" font-size="13" lengthAdjust="spacingAndGlyphs" textLength="115" x="1009" y="414.02">persist step result</text><!--MD5=[e069c724917c10a57cc22c839e27c946]
link Orchestrator to RunRepository--><path d="M617.53,379.0031 C628.21,382.7231 639.45,386.5431 650,389.9531 C726.28,414.5831 744.61,424.2131 823,440.9531 C894.49,456.2231 913.29,455.4331 986,462.9531 C1067.67,471.4031 1161.97,477.6731 1223.84,481.3131 " fill="none" id="Orchestrator-&gt;RunRepository" style="stroke: #A80036; stroke-width: 1.0;"/><polygon fill="#A80036" points="1228.98,481.6131,1220.2236,477.1048,1223.9882,481.3271,1219.7659,485.0917,1228.98,481.6131" style="stroke: #A80036; stroke-width: 1.0;"/><text fill="#000000" font-family="sans-serif" font-size="13" lengthAdjust="spacingAndGlyphs" textLength="131" x="824" y="437.02">load / save run state</text><!--MD5=[b2f8ce7bee2f16c1ab2d5ce4686f7864]
link RunRepository to Orchestrator--><path d="M1228.73,475.7831 C1203.42,472.3031 1173.86,468.5531 1147,465.9531 C1111.32,462.4931 1017.98,472.1531 986,455.9531 C967.42,446.5431 974.14,430.1831 956,419.9531 C927.69,403.9931 726.32,379.1031 625.17,367.4231 " fill="none" id="RunRepository-&gt;Orchestrator" style="stroke: #A80036; stroke-width: 1.0;"/><polygon fill="#A80036" points="620.14,366.8431,628.6244,371.8447,625.1073,367.4141,629.5379,363.897,620.14,366.8431" style="stroke: #A80036; stroke-width: 1.0;"/><text fill="#000000" font-family="sans-serif" font-size="13" lengthAdjust="spacingAndGlyphs" textLength="108" x="835.5" y="389.02">current run state</text><!--MD5=[6068733205bfcc0511743a1c81c6a8a6]
link RunRepository to PostgresClients--><path d="M1355.13,474.8031 C1406.07,466.1931 1479.96,453.0131 1544,438.9531 C1552.71,437.0431 1561.83,434.8931 1570.84,432.6931 " fill="none" id="RunRepository-&gt;PostgresClients" style="stroke: #A80036; stroke-width: 1.0;"/><polygon fill="#A80036" points="1575.83,431.4531,1566.1381,429.7016,1570.9726,432.6389,1568.0354,437.4734,1575.83,431.4531" style="stroke: #A80036; stroke-width: 1.0;"/><text fill="#000000" font-family="sans-serif" font-size="13" lengthAdjust="spacingAndGlyphs" textLength="105" x="1438" y="435.02">persist run state</text><!--MD5=[74fc245dc83d54d313c9fe24d2b36772]
link RunRepository to GMN41--><path d="M1228.8,490.0731 C1173.53,490.6631 1095.97,481.3131 1055.5,430.4531 C1007.07,369.5931 1014.3,321.4231 1055.5,255.4531 C1086.78,205.3631 1146.76,176.4031 1198.49,160.0131 " fill="none" id="RunRepository-GMN41" style="stroke: #A80036; stroke-width: 1.0; stroke-dasharray: 7.0,7.0;"/><!--MD5=[a0f78fefeb1bff3bf0687ec1e528a7de]
link RetrievalSteps to GMN44--><path d="M1230.18,258.6631 C1143.28,237.1331 1001.32,189.8031 1055.5,119.4531 C1086.33,79.4131 1139.61,63.0931 1187.79,57.0931 " fill="none" id="RetrievalSteps-GMN44" style="stroke: #A80036; stroke-width: 1.0; stroke-dasharray: 7.0,7.0;"/><!--MD5=[06dc65a529458fb0db862a06b94d93bd]
@startuml
title Runtime Architecture Overview

left to right direction
skinparam shadowing false
skinparam packageStyle rectangle
skinparam componentStyle rectangle
skinparam defaultTextAlignment center

actor User

package "Runtime Core" {
  component "Orchestrator" as Orchestrator
  component "Transition Policy" as TransitionPolicy
  component "Step Executor" as StepExecutor
  component "Run Repository" as RunRepository

  package "Step Modules" {
    component "Retrieval Steps" as RetrievalSteps
    component "Card Hydration" as CardHydration
    component "Generation And Update Steps" as GenerationSteps
  }

  package "API Clients" {
    component "Qdrant Clients" as QdrantClients
    component "Postgres Clients" as PostgresClients
    component "Model Clients" as ModelClients
  }
}

package "External Systems" {
  database "Qdrant" as Qdrant
  database "Postgres" as Postgres
  component "Model Provider" as ModelProvider
}

User - -> Orchestrator : user input

Orchestrator - -> TransitionPolicy : ask next step
TransitionPolicy - -> Orchestrator : next step / wait for user /\nfinish w error / finish w success

Orchestrator - -> StepExecutor : execute selected step
StepExecutor - -> RetrievalSteps : dispatch retrieval step
StepExecutor - -> CardHydration : dispatch hydration step
StepExecutor - -> GenerationSteps : dispatch generation step

RetrievalSteps - -> QdrantClients
CardHydration - -> PostgresClients
GenerationSteps - -> ModelClients

QdrantClients - -> Qdrant : search cards / incident chunks /\ntheory collections
PostgresClients - -> Postgres : load cards / store run state
ModelClients - -> ModelProvider : structuring / observation /\ngeneration calls

StepExecutor - -> RunRepository : persist step result
Orchestrator - -> RunRepository : load / save run state
RunRepository - -> PostgresClients : persist run state

RunRepository - -> Orchestrator : current run state
StepExecutor - -> Orchestrator : step outcome

note bottom of TransitionPolicy
Determines which step can run next
for the current iteration.
end note

note bottom of RunRepository
Each executed step is recorded
in durable run state.
end note

note bottom of RetrievalSteps
Some modules read different
Qdrant collections depending
on the selected step.
end note

@enduml

PlantUML version 1.2020.02(Sun Mar 01 12:22:07 EET 2020)
(GPL source distribution)
Java Runtime: OpenJDK Runtime Environment
JVM: OpenJDK 64-Bit Server VM
Java Version: 21.0.10+7-Ubuntu-124.04
Operating System: Linux
Default Encoding: UTF-8
Language: en
Country: null
--></g></svg>